<?xml version="1.0" encoding="UTF-8"?>
<svg id="Layer_1" xmlns="http://www.w3.org/2000/svg" version="1.1" viewBox="0 0 540 234">
  <!-- Generator: Adobe Illustrator 29.5.1, SVG Export Plug-In . SVG Version: 2.1.0 Build 141)  -->
  <defs>
    <style>
      .st0 {
        fill: #4c4f50;
      }
    </style>
  </defs>
  <g>
    <path class="st0" d="M15.7,19.2c-.4.7-.9,1.2-1.7,1.6s-1.7.6-2.9.6h-2.3v5.4h-2.8v-14h5.1c1.1,0,2,.2,2.8.6.8.4,1.3.9,1.7,1.5.4.7.6,1.4.6,2.2s-.2,1.4-.5,2.1ZM12.7,18.6c.4-.4.6-.9.6-1.5,0-1.4-.8-2-2.3-2h-2.2v4.1h2.2c.8,0,1.3-.2,1.7-.5h0Z"/>
    <path class="st0" d="M18.1,18.2c.4-.9,1.1-1.5,1.8-2,.8-.5,1.6-.7,2.6-.7s1.6.2,2.2.5,1.1.8,1.5,1.3v-1.6h2.8v11.1h-2.8v-1.6c-.4.5-.9,1-1.5,1.3s-1.4.5-2.2.5-1.8-.2-2.6-.7c-.8-.5-1.4-1.2-1.8-2-.4-.9-.7-1.9-.7-3s.2-2.1.7-3h0ZM25.8,19.4c-.3-.5-.6-.9-1.1-1.1-.5-.3-.9-.4-1.5-.4s-1,.1-1.4.4-.8.6-1.1,1.1c-.3.5-.4,1.1-.4,1.7s.1,1.3.4,1.8.6.9,1.1,1.2.9.4,1.4.4,1-.1,1.5-.4.8-.6,1.1-1.1c.3-.5.4-1.1.4-1.8s-.1-1.3-.4-1.8Z"/>
    <path class="st0" d="M35.9,16c.6-.3,1.2-.5,2-.5v2.9h-.7c-.9,0-1.5.2-2,.6-.4.4-.7,1.1-.7,2.2v5.5h-2.8v-11.1h2.8v1.7c.4-.6.8-1,1.4-1.4h0Z"/>
    <path class="st0" d="M39.8,18.2c.4-.9,1.1-1.5,1.8-2,.8-.5,1.6-.7,2.6-.7s1.6.2,2.2.5c.6.3,1.1.8,1.5,1.3v-1.6h2.8v11.1h-2.8v-1.6c-.4.5-.9,1-1.5,1.3s-1.4.5-2.2.5-1.8-.2-2.6-.7-1.4-1.2-1.8-2c-.4-.9-.7-1.9-.7-3s.2-2.1.7-3h0ZM47.4,19.4c-.3-.5-.6-.9-1.1-1.1-.5-.3-.9-.4-1.5-.4s-1,.1-1.4.4-.8.6-1.1,1.1-.4,1.1-.4,1.7,0,1.3.4,1.8c.3.5.6.9,1.1,1.2s.9.4,1.4.4,1-.1,1.5-.4.8-.6,1.1-1.1.4-1.1.4-1.8,0-1.3-.4-1.8Z"/>
    <path class="st0" d="M57.7,16c.6-.3,1.4-.5,2.2-.5s1.8.2,2.6.7c.8.5,1.4,1.1,1.8,2s.7,1.9.7,3-.2,2.1-.7,3c-.4.9-1.1,1.6-1.8,2-.8.5-1.6.7-2.6.7s-1.6-.2-2.2-.5-1.1-.8-1.5-1.3v1.6h-2.8v-14.8h2.8v5.3c.4-.5.9-1,1.5-1.3h0ZM61.6,19.4c-.3-.5-.6-.9-1.1-1.1-.4-.3-.9-.4-1.5-.4s-1,.1-1.4.4-.8.6-1.1,1.1-.4,1.1-.4,1.7,0,1.2.4,1.7c.3.5.6.9,1.1,1.1.4.3.9.4,1.4.4s1-.1,1.5-.4.8-.6,1.1-1.1.4-1.1.4-1.8,0-1.2-.4-1.7h0Z"/>
    <path class="st0" d="M77.4,15.6v11.1h-2.8v-1.4c-.4.5-.8.9-1.4,1.1-.6.3-1.2.4-1.9.4s-1.6-.2-2.3-.5-1.2-.9-1.6-1.6-.6-1.6-.6-2.6v-6.5h2.8v6.1c0,.9.2,1.6.7,2,.4.5,1,.7,1.8.7s1.4-.2,1.8-.7.7-1.2.7-2v-6.1h2.8Z"/>
    <path class="st0" d="M82.9,11.9v14.8h-2.8v-14.8s2.8,0,2.8,0Z"/>
    <path class="st0" d="M85.9,13.9c-.3-.3-.5-.7-.5-1.2s.2-.9.5-1.2.7-.5,1.2-.5.9.2,1.2.5c.3.3.5.7.5,1.2s-.2.9-.5,1.2-.7.5-1.2.5-.9-.2-1.2-.5ZM88.5,15.6v11.1h-2.8v-11.1h2.8Z"/>
    <path class="st0" d="M100.6,16.7c.8.8,1.2,2,1.2,3.5v6.5h-2.8v-6.1c0-.9-.2-1.6-.7-2-.4-.5-1-.7-1.8-.7s-1.4.2-1.8.7-.7,1.2-.7,2v6.1h-2.8v-11.1h2.8v1.4c.4-.5.8-.9,1.4-1.1.6-.3,1.2-.4,1.9-.4,1.3,0,2.4.4,3.2,1.3h.1Z"/>
    <path class="st0" d="M106.3,26.4c-.7-.3-1.3-.8-1.7-1.3-.4-.6-.6-1.2-.7-1.9h2.8c0,.4.3.8.6,1.1s.8.4,1.4.4.9-.1,1.3-.3c.3-.2.4-.5.4-.8s-.2-.6-.5-.8c-.4-.2-.9-.4-1.8-.6-.8-.2-1.5-.4-2-.6s-1-.5-1.4-1c-.4-.4-.6-1-.6-1.8s.2-1.2.5-1.7c.4-.5.9-.9,1.5-1.2s1.4-.4,2.3-.4c1.3,0,2.4.3,3.2,1,.8.7,1.2,1.6,1.3,2.7h-2.7c0-.4-.2-.8-.5-1.1-.3-.3-.8-.4-1.3-.4s-.9,0-1.2.3c-.3.2-.4.4-.4.8s.2.7.6.8c.4.2,1,.4,1.7.6.8.2,1.5.4,2,.6s1,.5,1.4,1,.6,1,.6,1.8-.2,1.2-.5,1.7c-.4.5-.9.9-1.5,1.2-.7.3-1.4.4-2.3.4s-1.7-.2-2.4-.5h-.1Z"/>
  </g>
  <g>
    <path class="st0" d="M234.9,193.5v14h-2.8v-5.9h-6v5.9h-2.8v-14h2.8v5.7h6v-5.7h2.8Z"/>
    <path class="st0" d="M239.7,206.9c-.9-.5-1.5-1.1-2-2s-.7-1.9-.7-3,.2-2.1.7-3,1.2-1.5,2.1-2,1.8-.7,2.9-.7,2,.2,2.9.7,1.6,1.1,2.1,2,.7,1.9.7,3-.3,2.1-.8,3-1.2,1.5-2.1,2c-.9.5-1.9.7-2.9.7s-2-.2-2.9-.7ZM244,204.8c.4-.2.8-.6,1.1-1.1s.4-1.1.4-1.8c0-1.1-.3-1.9-.8-2.4s-1.2-.9-2-.9-1.5.3-2,.9c-.5.6-.8,1.4-.8,2.4s.3,1.9.8,2.4,1.2.9,2,.9,1-.1,1.4-.4h0Z"/>
    <path class="st0" d="M252.2,207.2c-.7-.3-1.3-.8-1.7-1.3s-.6-1.2-.7-1.9h2.8c0,.4.3.8.6,1.1s.8.4,1.4.4.9-.1,1.3-.3c.3-.2.4-.5.4-.8s-.2-.6-.5-.8c-.4-.2-.9-.4-1.8-.6-.8-.2-1.5-.4-2-.6-.5-.2-1-.5-1.4-1-.4-.4-.6-1-.6-1.8s.2-1.2.5-1.7c.4-.5.9-.9,1.5-1.2s1.4-.4,2.3-.4c1.3,0,2.4.3,3.2,1,.8.7,1.2,1.6,1.3,2.7h-2.7c0-.4-.2-.8-.5-1.1s-.8-.4-1.3-.4-.9,0-1.2.3c-.3.2-.4.4-.4.8s.2.7.6.9c.4.2,1,.4,1.7.6.8.2,1.5.4,2,.6.5.2,1,.5,1.4,1s.6,1,.6,1.8-.2,1.2-.5,1.7c-.4.5-.9.9-1.5,1.2-.7.3-1.4.4-2.3.4s-1.7-.2-2.4-.5h-.1Z"/>
    <path class="st0" d="M264.6,198.7v5.4c0,.4,0,.6.3.8.2.2.5.3.9.3h1.3v2.4h-1.8c-2.4,0-3.5-1.1-3.5-3.4v-5.3h-1.3v-2.3h1.3v-2.7h2.8v2.7h2.5v2.3h-2.5v-.2Z"/>
  </g>
  <g>
    <path class="st0" d="M403.3,200.9c-.4.7-.9,1.2-1.7,1.6s-1.7.6-2.8.6h-2.3v5.4h-2.8v-14h5.1c1.1,0,2,.2,2.8.6.8.4,1.3.9,1.7,1.5.4.7.6,1.4.6,2.2s-.2,1.4-.5,2.1h-.1ZM400.4,200.3c.4-.4.6-.9.6-1.5,0-1.4-.8-2-2.3-2h-2.2v4.1h2.2c.8,0,1.3-.2,1.7-.5h0Z"/>
    <path class="st0" d="M405.7,199.9c.4-.9,1.1-1.5,1.8-2,.8-.5,1.6-.7,2.6-.7s1.6.2,2.2.5,1.1.8,1.5,1.3v-1.6h2.8v11.1h-2.8v-1.6c-.4.5-.9.9-1.5,1.3-.6.3-1.4.5-2.2.5s-1.8-.2-2.6-.7-1.4-1.2-1.8-2c-.4-.9-.7-1.9-.7-3s.2-2.1.7-3h0ZM413.4,201.2c-.3-.5-.6-.9-1.1-1.1-.5-.3-.9-.4-1.5-.4s-1,.1-1.4.4-.8.6-1.1,1.1-.4,1.1-.4,1.7.1,1.3.4,1.8.6.9,1.1,1.2c.4.3.9.4,1.4.4s1-.1,1.5-.4c.5-.3.8-.6,1.1-1.1.3-.5.4-1.1.4-1.8s-.1-1.3-.4-1.8h0Z"/>
    <path class="st0" d="M422.6,199.7v5.4c0,.4,0,.6.3.8.2.2.5.3.9.3h1.3v2.4h-1.8c-2.4,0-3.5-1.1-3.5-3.4v-5.3h-1.3v-2.3h1.3v-2.7h2.8v2.7h2.5v2.3h-2.5v-.2Z"/>
    <path class="st0" d="M435.6,197.8c.7.4,1.2.9,1.5,1.6.4.7.5,1.6.5,2.6v6.5h-2.8v-6.1c0-.9-.2-1.6-.7-2s-1-.7-1.8-.7-1.4.2-1.8.7-.7,1.2-.7,2v6.1h-2.8v-14.8h2.8v5.1c.4-.5.8-.9,1.4-1.1.6-.3,1.3-.4,2-.4s1.6.2,2.2.5h.2Z"/>
    <path class="st0" d="M442.4,207.9c-.9-.5-1.5-1.1-2-2s-.7-1.9-.7-3,.3-2.1.7-3c.5-.9,1.2-1.5,2.1-2s1.8-.7,2.9-.7,2,.2,2.9.7,1.6,1.1,2,2c.5.9.8,1.9.8,3s-.3,2.1-.8,3-1.2,1.5-2.1,2-1.8.7-2.9.7-2-.2-2.9-.7ZM446.7,205.8c.4-.2.8-.6,1.1-1.1.3-.5.4-1.1.4-1.8,0-1.1-.3-1.9-.8-2.4s-1.2-.8-2-.8-1.5.3-2,.8c-.5.6-.8,1.4-.8,2.4s.3,1.9.8,2.4c.5.6,1.2.9,2,.9s1-.1,1.4-.4h-.1Z"/>
    <path class="st0" d="M459.6,197.7c.6.3,1.1.7,1.5,1.3v-1.6h2.8v11.2c0,1-.2,1.9-.6,2.8s-1,1.4-1.9,1.9c-.8.5-1.8.7-3,.7s-2.9-.4-3.9-1.1c-1-.7-1.6-1.7-1.7-3h2.8c.1.5.5.9.9,1.2.5.3,1.1.4,1.8.4s1.5-.2,2-.7.8-1.2.8-2.2v-1.7c-.4.5-.9,1-1.5,1.3s-1.4.5-2.2.5-1.8-.2-2.6-.7c-.8-.5-1.4-1.2-1.8-2-.4-.9-.7-1.9-.7-3s.2-2.1.7-3c.4-.9,1.1-1.5,1.8-2,.8-.5,1.6-.7,2.6-.7s1.6.2,2.2.5h0ZM460.7,201.2c-.3-.5-.6-.9-1.1-1.1-.5-.3-.9-.4-1.5-.4s-1,.1-1.4.4-.8.6-1.1,1.1-.4,1.1-.4,1.7.1,1.3.4,1.8.6.9,1.1,1.2c.4.3.9.4,1.4.4s1-.1,1.5-.4c.5-.3.8-.6,1.1-1.1.3-.5.4-1.1.4-1.8s-.1-1.3-.4-1.8h0Z"/>
    <path class="st0" d="M476.9,203.8h-8.1c0,.8.3,1.4.8,1.9s1.1.7,1.8.7c1,0,1.8-.4,2.2-1.3h3c-.3,1.1-.9,1.9-1.8,2.6-.9.7-2,1-3.3,1s-2-.2-2.9-.7c-.8-.5-1.5-1.1-2-2s-.7-1.9-.7-3,.2-2.2.7-3c.5-.9,1.1-1.5,2-2,.8-.5,1.8-.7,2.9-.7s2,.2,2.8.7,1.5,1.1,1.9,1.9c.5.8.7,1.8.7,2.9v1.1h0ZM474.1,201.9c0-.7-.3-1.3-.8-1.7s-1.1-.7-1.9-.7-1.3.2-1.8.6c-.5.4-.8,1-.9,1.8h5.4Z"/>
    <path class="st0" d="M488.3,198.5c.8.8,1.2,2,1.2,3.5v6.5h-2.8v-6.1c0-.9-.2-1.6-.7-2s-1-.7-1.8-.7-1.4.2-1.8.7-.7,1.2-.7,2v6.1h-2.8v-11.1h2.8v1.4c.4-.5.9-.9,1.4-1.1.6-.3,1.2-.4,1.9-.4,1.3,0,2.4.4,3.2,1.2h0Z"/>
  </g>
</svg>