<?xml version="1.0" encoding="UTF-8"?>
<svg id="Group_57" xmlns="http://www.w3.org/2000/svg" xmlns:xlink="http://www.w3.org/1999/xlink" version="1.1" viewBox="0 0 97.07 142.58">
  <!-- Generator: Adobe Illustrator 29.2.1, SVG Export Plug-In . SVG Version: 2.1.0 Build 116)  -->
  <defs>
    <style>
      .st0 {
        fill: none;
      }

      .st1 {
        fill: #fff;
      }
    </style>
  </defs>
  <rect class="st0" y="-1.95" width="97.07" height="142.58"/>
  <rect class="st0" y="-1.95" width="97.07" height="142.58"/>
  <rect class="st0" y="-1.95" width="97.07" height="142.58"/>
  <path id="Path_745" class="st1" d="M80.93,69.34l-32.39,40.14-32.4-40.14,32.4,31.15,32.39-31.15Z"/>
  <path id="Path_746" class="st1" d="M0,69.34l48.54,53.31,48.54-53.31-48.54,71.29L0,69.34Z"/>
  <path id="Path_747" class="st1" d="M64.68,69.34l-16.14-20.07-16.14,20.07,16.14-15.57,16.14,15.57Z"/>
  <path id="Path_748" class="st1" d="M80.93,69.34L48.54,29.2l-32.4,40.14,32.4-31.15,32.39,31.15Z"/>
  <path id="Path_749" class="st1" d="M0,69.34L48.54,16.03l48.54,53.31L48.54-1.95,0,69.34Z"/>
  <path id="Path_750" class="st1" d="M64.68,69.34l-16.14,20.07-16.14-20.07,16.14,15.58,16.14-15.58Z"/>
</svg>